<svg width="38" height="36" viewBox="0 0 38 36" fill="none" xmlns="http://www.w3.org/2000/svg">
<path d="M26 11.9997H38C37.0005 9.0003 29.0005 -4.99976 13 1.99971C21.0005 2.00025 25.0005 9.00037 26 11.9997Z" fill="#00D0FF"/>
<path d="M26 24.0003H38C37.0005 26.9997 29.0005 40.9998 13 34.0003C21.0005 33.9998 25.0005 26.9996 26 24.0003Z" fill="#00D0FF"/>
<path d="M3 10.0002H14C14 10.0002 11 12.0002 11 18.0002C11 24.0002 14 26.0002 14 26.0002H3C3 26.0002 0 24.0002 0 18.0002C0 12.0002 3 10.0002 3 10.0002Z" fill="#00D0FF"/>
</svg>
